<svg xmlns="http://www.w3.org/2000/svg" viewBox="0 0 48 48" width="48" height="48"><path fill="#EA4335" d="M24 9.5c3.5 0 6.2 1.5 7.6 2.7l5.6-5.5C34.6 4 29.8 2 24 2 14.6 2 6.8 7.6 3.3 15.1l6.7 5.2C11.2 14 17 9.5 24 9.5z"/><path fill="#34A853" d="M46.5 24.5c0-1.6-.1-2.8-.4-4.1H24v8h12.8c-.6 3.2-2.4 6-5.2 7.9l8 6.2C43.8 38.2 46.5 31.9 46.5 24.5z"/><path fill="#4A90E2" d="M9.9 28.3A14.6 14.6 0 0 1 9 24c0-1.4.2-2.7.6-3.9L3 14.9A23.8 23.8 0 0 0 2 24c0 3.6.9 7 2.6 10.1l4.3-5.8z"/><path fill="#FBBC05" d="M24 46c6.5 0 12-2.1 16-5.6l-8-6.2c-2.2 1.5-5 2.4-8 2.4-6.8 0-12.6-4.5-14.9-10.6l-6.7 5.2C6.8 40.4 14.6 46 24 46z"/></svg>